<svg id="Layer_1" data-name="Layer 1" xmlns="http://www.w3.org/2000/svg" viewBox="0 0 429 421">
  <defs></defs>
  <title>Twitter Icon</title>
  <path class="cls-1" d="M145.37,362.83c140.64,0,217.55-116.51,217.55-217.55,0-3.3-.08-6.61-.22-9.87a155.94,155.94,0,0,0,38.15-39.59,152.48,152.48,0,0,1-43.91,12,76.7,76.7,0,0,0,33.61-42.29A152.8,152.8,0,0,1,342,84.09a76.52,76.52,0,0,0-130.29,69.74A217.17,217.17,0,0,1,54.1,73.95,76.5,76.5,0,0,0,77.78,176a76.1,76.1,0,0,1-34.65-9.56v1a76.47,76.47,0,0,0,61.33,75,76,76,0,0,1-34.53,1.31,76.55,76.55,0,0,0,71.42,53.12A154.3,154.3,0,0,1,28.15,328.47a216.36,216.36,0,0,0,117.21,34.35"/>
</svg>