<svg xmlns="http://www.w3.org/2000/svg" viewBox="0 0 458.39 353.46"><title>Asset 2</title><g id="Layer_2" data-name="Layer 2"><g id="Layer_1-2" data-name="Layer 1"><path d="M259.68,112.12A245,245,0,0,1,81.87,22a86.31,86.31,0,0,0,26.72,115.13,85.86,85.86,0,0,1-39.09-10.79v1.13a86.27,86.27,0,0,0,69.19,84.61,85.74,85.74,0,0,1-39,1.48A86.36,86.36,0,0,0,180.3,273.5,174.08,174.08,0,0,1,52.59,309.15C92,334.5,165,355,212.65,328.63" style="fill:#ffcfbc;stroke:#ffcfbc;stroke-miterlimit:10;stroke-width:25.084888900729222px"/><path d="M192.85,341.15C339,341.15,419,220.05,419,115c0-3.43-.08-6.87-.23-10.26a162.08,162.08,0,0,0,39.65-41.15A158.48,158.48,0,0,1,412.75,76.1a79.72,79.72,0,0,0,34.93-44,158.82,158.82,0,0,1-50.46,19.29A79.53,79.53,0,0,0,261.8,123.92,225.72,225.72,0,0,1,98,40.9,79.51,79.51,0,0,0,122.6,147a79.1,79.1,0,0,1-36-9.94v1a79.48,79.48,0,0,0,63.74,78,79,79,0,0,1-35.89,1.36,79.56,79.56,0,0,0,74.23,55.21A160.37,160.37,0,0,1,71,305.44a224.88,224.88,0,0,0,121.82,35.7"/></g></g></svg>